<svg width="405" height="94" viewBox="0 0 405 94" fill="none" xmlns="http://www.w3.org/2000/svg">
<g clip-path="url(#clip0_4890_113)">
<path d="M87.5047 0.869629H2.84877C1.28195 0.869629 0 2.12554 0 3.76788V90.8121C0 92.4061 1.28195 93.7103 2.84877 93.7103H87.5047C89.0715 93.7103 90.3535 92.4061 90.3535 90.8121V3.76788C90.3535 2.17384 89.0715 0.869629 87.5047 0.869629ZM78.3411 78.5428C78.0088 79.0742 77.439 79.4123 76.8218 79.4123H63.4326C62.7679 79.4123 62.1506 79.0258 61.8658 78.3979L54.2691 62.8439C53.7468 61.8296 52.7022 61.1533 51.5627 61.1533H28.4402C27.9654 61.1533 27.5856 61.5397 27.5856 62.0228V77.6733C27.5856 78.6877 26.7784 79.4606 25.8288 79.4606H15.2409C14.2438 79.4606 13.4842 78.6394 13.4842 77.6733V48.5942C13.4842 47.5798 14.2913 46.8069 15.2409 46.8069H50.8505C52.1325 46.8069 53.2245 45.7442 53.2245 44.3917V32.0259C53.2245 30.7216 52.18 29.6106 50.8505 29.6106H15.2409C14.2438 29.6106 13.4842 28.7895 13.4842 27.8234V17.0515C13.4842 16.0372 14.2913 15.2643 15.2409 15.2643H52.5123C53.5094 15.2643 54.2691 16.0855 54.2691 17.0515V25.6014C54.2691 26.9056 55.3136 28.0166 56.643 28.0166H65.5692C66.5662 28.0166 67.3259 28.8378 67.3259 29.8039V46.6137C67.3259 47.6281 66.5188 48.401 65.5692 48.401H56.643C55.3611 48.401 54.2691 49.4637 54.2691 50.8162V56.9991C54.2691 58.6898 55.5985 60.0423 57.2603 60.0423H69.0352C69.6999 60.0423 70.3171 60.4287 70.602 61.0567L78.3411 76.8522C78.626 77.4318 78.5785 78.0598 78.2462 78.5911L78.3411 78.5428Z" fill="white"/>
<path d="M235.878 41.6868L217.028 39.175C212.28 38.4987 206.868 35.6005 205.206 29.5624C202.927 21.1575 209.812 13.0424 218.358 13.0424H228.424C237.682 13.0424 242.335 21.8337 242.715 29.9489V30.5285H256.341V29.9006C255.487 10.3373 243.997 0.000244141 223.106 0.000244141C203.307 0.000244141 191.532 9.99922 191.532 26.7125C191.532 40.6241 199.841 49.9951 213.752 51.879L232.887 54.5357C239.961 55.3569 244.519 60.4288 244.519 67.5295C244.519 75.4514 238.916 80.9581 230.892 80.9581H218.073C208.15 80.9581 203.639 71.9735 202.832 64.2449V63.7135H189.205V64.3415C189.633 84.0013 201.408 93.952 224.245 93.952C245.611 93.952 257.861 83.953 257.861 66.5152C257.861 52.4586 250.074 43.619 235.925 41.5902L235.878 41.6868Z" fill="white"/>
<path d="M310.278 41.6868L291.429 39.175C286.681 38.4987 281.268 35.6005 279.607 29.5624C277.328 21.1575 284.212 13.0424 292.758 13.0424H302.824C312.083 13.0424 316.736 21.8337 317.115 29.9489V30.5285H330.742V29.9006C329.887 10.3373 318.397 0.000244141 297.506 0.000244141C277.707 0.000244141 265.932 9.99922 265.932 26.7125C265.932 40.6241 274.241 49.9951 288.153 51.879L307.287 54.5357C314.362 55.3569 318.92 60.4288 318.92 67.5295C318.92 75.4514 313.317 80.9581 305.293 80.9581H292.473C282.55 80.9581 278.04 71.9735 277.233 64.2449V63.7135H263.606V64.3415C264.033 84.0013 275.808 93.952 298.646 93.952C320.012 93.952 332.261 83.953 332.261 66.5152C332.261 52.4586 324.475 43.619 310.326 41.5902L310.278 41.6868Z" fill="white"/>
<path d="M392.18 44.0537C391.563 43.7638 391.516 42.9427 392.133 42.6045C398.875 38.7885 402.436 32.3157 402.436 23.7659C402.436 16.6169 399.492 -0.0480957 372.191 -0.0480957C351.443 -0.0480957 339.288 9.90258 338.006 28.0167V30.4802H351.443V28.1133C351.87 19.3219 358.565 12.7042 367.016 12.7042H376.18C383.919 12.7042 389.094 17.9211 389.094 25.6981C389.094 33.475 384.299 38.5953 376.56 38.5953H361.366C360.939 38.5953 360.559 38.9817 360.559 39.4165V49.512C360.559 49.9468 360.939 50.3332 361.366 50.3332H377.272C386.15 50.3332 391.706 56.3229 391.706 65.9838C391.706 75.6446 386.008 81.1996 376.892 81.1996H367.206C358.232 81.1996 351.538 73.7608 350.873 63.1338V61.6364H337.342V63.2304C338.529 83.9046 349.924 93.9519 372.239 93.9519C393.082 93.9519 405.047 83.808 405.047 66.1287C405.047 55.4535 400.632 47.8697 392.18 44.0054V44.0537Z" fill="white"/>
<path d="M167.84 52.2171C178.808 48.5942 185.597 39.3198 185.597 27.8234C185.597 12.8008 173.965 1.93237 157.964 1.93237H120.123C119.553 1.93237 119.126 2.41542 119.126 2.94676V41.0105C119.126 41.5901 119.601 42.0249 120.123 42.0249H129.524C131.138 42.0249 132.468 43.3774 132.468 45.0197V50.3332C132.468 51.9755 131.138 53.3281 129.524 53.3281H120.123C119.553 53.3281 119.126 53.8111 119.126 54.3424V91.0053C119.126 91.585 119.601 92.0197 120.123 92.0197H131.423C131.993 92.0197 132.42 91.5367 132.42 91.0053V56.661C132.42 55.0187 133.75 53.6662 135.364 53.6662H153.169C153.548 53.6662 153.881 53.8594 154.071 54.1975L174.392 91.6816L174.582 91.9714H187.734C188.493 91.9714 188.968 91.1503 188.636 90.4257L167.887 52.1205L167.84 52.2171ZM132.468 38.9817V14.8779C132.468 14.2983 132.942 13.8635 133.465 13.8635H157.252C166.225 13.8635 172.208 19.4668 172.208 27.8234C172.208 36.1801 166.178 41.9283 157.252 41.9283H135.364C133.75 41.9283 132.42 40.5757 132.42 38.9334L132.468 38.9817Z" fill="white"/>
</g>
<defs>
<clipPath id="clip0_4890_113">
<rect width="405" height="94" fill="white"/>
</clipPath>
</defs>
</svg>
